<svg width="1008" height="86" viewBox="0 0 1008 86" fill="none" xmlns="http://www.w3.org/2000/svg">
  <path
    d="M496.485 68.6741L503.586 76.7909V39.3955V2C484.649 24.7272 487.016 43.5505 490.567 50.1213C483.939 38.5258 470.052 29.4427 463.937 26.3505C462.162 40.2651 478.731 53.0202 475.181 53.0202C471.63 53.0202 468.079 55.919 463.937 58.8179C460.623 61.137 449.931 62.4898 445 62.8763C466.304 79.11 488.2 73.5055 496.485 68.6741Z"
    fill="url(#paint0_linear_9078_4813)" stroke="url(#paint1_linear_9078_4813)" />
  <path
    d="M511.101 68.6741L504 76.7909V2C522.937 24.7272 520.57 43.5505 517.019 50.1213C523.647 38.5258 537.534 29.4427 543.649 26.3505C545.424 40.2651 528.854 53.0202 532.405 53.0202C535.956 53.0202 539.507 55.919 543.649 58.8179C546.963 61.137 557.654 62.4898 562.586 62.8763C541.282 79.11 519.386 73.5055 511.101 68.6741Z"
    fill="url(#paint2_linear_9078_4813)" stroke="url(#paint3_linear_9078_4813)" />
  <path
    d="M460.582 53.7308C457.05 51.6533 449.862 45.7531 449.363 38.7726C450.61 37.9416 454.599 37.1521 460.582 40.6424"
    stroke="url(#paint4_linear_9078_4813)" stroke-width="3" />
  <path
    d="M473.67 26.3075C473.463 24.4377 473.67 19.5763 476.163 15.0889C477.618 15.5044 481.025 17.0833 483.019 20.0749"
    stroke="url(#paint5_linear_9078_4813)" stroke-width="3" />
  <path
    d="M523.531 20.6982C524.362 19.2439 526.897 16.0861 530.387 15.0889C531.634 17.3741 533.753 23.0666 532.257 27.554"
    stroke="url(#paint6_linear_9078_4813)" stroke-width="3" />
  <path
    d="M545.344 41.8888C545.552 39.8113 548.335 36.2795 557.809 38.7725C557.186 41.8888 553.82 49.368 545.344 54.3541"
    stroke="url(#paint7_linear_9078_4813)" stroke-width="3" />
  <path
    d="M801.363 75.8012C933.385 60.2236 991.909 68.8357 1007.3 77.8689C1007.3 53.7817 874.202 60.6562 805.107 70.7256C750.19 78.7289 602.912 82.3397 509.303 75.8012C601.664 87.5012 727.724 84.4901 801.363 75.8012Z"
    fill="url(#paint8_linear_9078_4813)" stroke="url(#paint9_linear_9078_4813)" />
  <path
    d="M628.131 60.1719C641.075 64.6783 643.1 74.0428 645.27 81.9463L642.363 82.5741L641.362 79.0537C640.623 79.2166 639.862 79.3177 639.33 79.2541C623.083 77.3092 621.618 52.0001 621.618 52.0001C622.746 55.092 633.042 56.694 640.252 59.0356C647.463 61.3772 649.675 67.9255 649.326 70.8407C648.977 73.7558 646.087 75.9972 646.087 75.9972C642.901 61.94 628.131 60.1719 628.131 60.1719Z"
    fill="#57A643" />
  <path
    d="M840.764 56.541C847.957 59.0451 849.083 64.249 850.289 68.6409L848.673 68.9898L848.117 67.0335C847.706 67.1241 847.283 67.1802 846.988 67.1449C837.959 66.0641 837.145 51.9999 837.145 51.9999C837.772 53.718 843.493 54.6083 847.5 55.9095C851.507 57.2107 852.736 60.8496 852.543 62.4695C852.349 64.0895 850.743 65.335 850.743 65.335C848.972 57.5235 840.764 56.541 840.764 56.541Z"
    fill="#57A643" />
  <path
    d="M748.036 50.0657C752.025 63.1785 745.654 70.3341 740.548 76.7456L738.328 74.7676L740.581 71.8832C740.014 71.3826 739.484 70.8273 739.222 70.3602C731.217 56.089 750.799 39.9879 750.799 39.9879C748.966 42.7217 753.74 51.9829 756.098 59.1879C758.457 66.393 754.471 72.04 751.91 73.4764C749.35 74.9127 745.836 73.8991 745.836 73.8991C755.313 63.0395 748.036 50.0657 748.036 50.0657Z"
    fill="#57A643" />
  <path
    d="M717.142 56.2092C730.493 59.3109 733.504 68.4064 736.504 76.0336L733.681 76.9675L732.31 73.5739C731.592 73.8146 730.846 73.9962 730.311 73.9896C713.949 73.7867 709.796 48.7777 709.796 48.7777C711.247 51.7318 721.655 52.2279 729.074 53.788C736.493 55.348 739.39 61.6234 739.354 64.5591C739.317 67.4948 736.683 70.0313 736.683 70.0313C732.017 56.3936 717.142 56.2092 717.142 56.2092Z"
    fill="#57A643" />
  <path
    d="M772.922 56.9011C759.498 59.6709 756.263 68.6889 753.075 76.2394L755.874 77.243L757.329 73.8845C758.04 74.1429 758.781 74.3429 759.316 74.3495C775.678 74.5524 780.45 49.654 780.45 49.654C778.926 52.5713 768.509 52.8092 761.054 54.1848C753.599 55.5605 750.546 61.762 750.51 64.6978C750.474 67.6335 753.045 70.2345 753.045 70.2345C758.047 56.7167 772.922 56.9011 772.922 56.9011Z"
    fill="#57A643" />
  <path
    d="M206.637 75.8012C74.6151 60.2236 16.0907 68.8357 0.697266 77.8689C0.697266 53.7817 133.798 60.6562 202.893 70.7256C257.81 78.7289 405.088 82.3397 498.697 75.8012C406.336 87.5012 280.276 84.4901 206.637 75.8012Z"
    fill="url(#paint10_linear_9078_4813)" stroke="url(#paint11_linear_9078_4813)" />
  <path
    d="M379.869 60.1719C366.925 64.6783 364.9 74.0428 362.73 81.9463L365.637 82.5741L366.638 79.0537C367.377 79.2166 368.138 79.3177 368.67 79.2541C384.917 77.3092 386.382 52.0001 386.382 52.0001C385.254 55.092 374.958 56.694 367.748 59.0356C360.537 61.3772 358.325 67.9255 358.674 70.8407C359.023 73.7558 361.913 75.9972 361.913 75.9972C365.099 61.94 379.869 60.1719 379.869 60.1719Z"
    fill="#57A643" />
  <path
    d="M167.236 56.541C160.043 59.0451 158.917 64.249 157.711 68.6409L159.327 68.9898L159.883 67.0335C160.294 67.1241 160.717 67.1802 161.012 67.1449C170.041 66.0641 170.855 51.9999 170.855 51.9999C170.228 53.718 164.507 54.6083 160.5 55.9095C156.493 57.2107 155.264 60.8496 155.457 62.4695C155.651 64.0895 157.257 65.335 157.257 65.335C159.028 57.5235 167.236 56.541 167.236 56.541Z"
    fill="#57A643" />
  <path
    d="M259.964 50.0657C255.975 63.1785 262.346 70.3341 267.452 76.7456L269.672 74.7676L267.419 71.8832C267.986 71.3826 268.516 70.8273 268.778 70.3602C276.783 56.089 257.201 39.9879 257.201 39.9879C259.034 42.7217 254.26 51.9829 251.902 59.1879C249.543 66.393 253.529 72.04 256.09 73.4764C258.65 74.9127 262.164 73.8991 262.164 73.8991C252.687 63.0395 259.964 50.0657 259.964 50.0657Z"
    fill="#57A643" />
  <path
    d="M290.858 56.2092C277.507 59.3109 274.496 68.4064 271.496 76.0336L274.319 76.9675L275.69 73.5739C276.408 73.8146 277.154 73.9962 277.689 73.9896C294.051 73.7867 298.204 48.7777 298.204 48.7777C296.753 51.7318 286.345 52.2279 278.926 53.788C271.507 55.348 268.61 61.6234 268.646 64.5591C268.683 67.4948 271.317 70.0313 271.317 70.0313C275.983 56.3936 290.858 56.2092 290.858 56.2092Z"
    fill="#57A643" />
  <path
    d="M235.078 56.9011C248.502 59.6709 251.737 68.6889 254.925 76.2394L252.126 77.243L250.671 73.8845C249.96 74.1429 249.219 74.3429 248.684 74.3495C232.322 74.5524 227.55 49.654 227.55 49.654C229.074 52.5713 239.491 52.8092 246.946 54.1848C254.401 55.5605 257.454 61.762 257.49 64.6978C257.526 67.6335 254.955 70.2345 254.955 70.2345C249.953 56.7167 235.078 56.9011 235.078 56.9011Z"
    fill="#57A643" />
  <defs>
    <linearGradient id="paint0_linear_9078_4813" x1="474.293" y1="2" x2="474.293" y2="76.7909"
      gradientUnits="userSpaceOnUse">
      <stop stop-color="#DF6BA2" />
      <stop offset="1" stop-color="#8E3B7C" />
    </linearGradient>
    <linearGradient id="paint1_linear_9078_4813" x1="474.293" y1="2" x2="474.293" y2="76.7909"
      gradientUnits="userSpaceOnUse">
      <stop stop-color="#DF6BA2" />
      <stop offset="1" stop-color="#8E3B7C" />
    </linearGradient>
    <linearGradient id="paint2_linear_9078_4813" x1="533.293" y1="2" x2="533.293" y2="76.7909"
      gradientUnits="userSpaceOnUse">
      <stop stop-color="#DF6BA2" />
      <stop offset="1" stop-color="#8E3B7C" />
    </linearGradient>
    <linearGradient id="paint3_linear_9078_4813" x1="533.293" y1="2" x2="533.293" y2="76.7909"
      gradientUnits="userSpaceOnUse">
      <stop stop-color="#DF6BA2" />
      <stop offset="1" stop-color="#8E3B7C" />
    </linearGradient>
    <linearGradient id="paint4_linear_9078_4813" x1="454.973" y1="38.0605" x2="454.973" y2="53.7308"
      gradientUnits="userSpaceOnUse">
      <stop stop-color="#DF6BA2" />
      <stop offset="1" stop-color="#8E3B7C" />
    </linearGradient>
    <linearGradient id="paint5_linear_9078_4813" x1="478.314" y1="15.0889" x2="478.314" y2="26.3075"
      gradientUnits="userSpaceOnUse">
      <stop stop-color="#DF6BA2" />
      <stop offset="1" stop-color="#8E3B7C" />
    </linearGradient>
    <linearGradient id="paint6_linear_9078_4813" x1="528.151" y1="15.0889" x2="528.151" y2="27.554"
      gradientUnits="userSpaceOnUse">
      <stop stop-color="#DF6BA2" />
      <stop offset="1" stop-color="#8E3B7C" />
    </linearGradient>
    <linearGradient id="paint7_linear_9078_4813" x1="551.576" y1="37.915" x2="551.576" y2="54.3541"
      gradientUnits="userSpaceOnUse">
      <stop stop-color="#DF6BA2" />
      <stop offset="1" stop-color="#8E3B7C" />
    </linearGradient>
    <linearGradient id="paint8_linear_9078_4813" x1="758.303" y1="61.4883" x2="758.303" y2="83.4883"
      gradientUnits="userSpaceOnUse">
      <stop stop-color="#DF6BA2" />
      <stop offset="1" stop-color="#8E3B7C" />
    </linearGradient>
    <linearGradient id="paint9_linear_9078_4813" x1="758.303" y1="61.4883" x2="758.303" y2="83.4883"
      gradientUnits="userSpaceOnUse">
      <stop stop-color="#DF6BA2" />
      <stop offset="1" stop-color="#8E3B7C" />
    </linearGradient>
    <linearGradient id="paint10_linear_9078_4813" x1="249.697" y1="61.4883" x2="249.697" y2="83.4883"
      gradientUnits="userSpaceOnUse">
      <stop stop-color="#DF6BA2" />
      <stop offset="1" stop-color="#8E3B7C" />
    </linearGradient>
    <linearGradient id="paint11_linear_9078_4813" x1="249.697" y1="61.4883" x2="249.697" y2="83.4883"
      gradientUnits="userSpaceOnUse">
      <stop stop-color="#DF6BA2" />
      <stop offset="1" stop-color="#8E3B7C" />
    </linearGradient>
  </defs>
</svg>

